<?xml version="1.0"?>
<svg xmlns="http://www.w3.org/2000/svg" id="Layer_1" data-name="Layer 1" viewBox="0 0 64 64"><title>Icons8 RSL Colored Part 10</title><path d="M63,24a7.26,7.26,0,0,1-.05,1C62.15,34,50,33,50,33H42.89A2,2,0,0,1,41,30.35L43,25h6l-1,4h4c3.64-.25,4.63-2.67,4.9-4a4.81,4.81,0,0,0,.1-1c0-1.43-1-3-4-3H42l-3.67,4-7.15,7.71a2,2,0,0,1-3.33-.64L25.13,25l-.75-2a10.8,10.8,0,0,1-.17,2C22.7,33.71,11,33,11,33H3.89A2,2,0,0,1,2,30.35L4,25h6L9,29h4c3.64-.25,4.63-2.67,4.9-4a4.81,4.81,0,0,0,.1-1c0-1.43-1-3-4-3H5l1.21-2.79A2,2,0,0,1,8.05,17h17.6a2,2,0,0,1,1.85,1.26L30.18,25,31,27l1.85-2,6.55-7.28A2,2,0,0,1,40.89,17H54C60.11,17,63,19.86,63,24Z" style="fill:#85cbf8;"/><path d="M60,47c0,1.9-4.26,3.6-10.92,4.7A112.84,112.84,0,0,1,32.79,53H31l-2.21,0c-2,0-3.92-.1-5.78-.21-1.28-.08-2.53-.17-3.73-.28-1.57-.14-3.07-.31-4.49-.51C7.07,51,2,49.13,2,47c0-2.93,10.2-5.38,23.67-5.9,1.66-.06,3.36-.1,5.1-.1H31c1.26,0,2.51,0,3.73,0,2,0,3.89.15,5.72.28,1.27.09,2.5.19,3.68.32a51.61,51.61,0,0,1,12.46,2.54C58.77,45.07,60,46,60,47Z" style="fill:#85cbf8;"/><path d="M56.59,44.24l-7.51,7.51A112.84,112.84,0,0,1,32.79,53L44.13,41.7A51.61,51.61,0,0,1,56.59,44.24Z" style="fill:#9fddff;"/><path d="M40.45,41.38,28.79,53c-2,0-3.92-.1-5.78-.21L34.73,41.1C36.71,41.15,38.62,41.25,40.45,41.38Z" style="fill:#9fddff;"/><path d="M30.77,41,19.28,52.54c-1.57-.14-3.07-.31-4.49-.51L25.67,41.15C27.33,41.09,29,41,30.77,41Z" style="fill:#9fddff;"/><path d="M27.5,18.31,30.18,25H17.9a4.81,4.81,0,0,0,.1-1c0-1.43-1-3-4-3H5l1.21-2.79A2,2,0,0,1,8.05,17h17.6A2,2,0,0,1,27.5,18.31Z" style="fill:#ace3ff;"/><path d="M63,24a7.26,7.26,0,0,1-.05,1H57l-2-4H43l-5,4H32.85l6.55-7.28A2,2,0,0,1,40.89,17H54C60.11,17,63,19.86,63,24Z" style="fill:#ace3ff;"/><path d="M31,40.05c-10.38,0-30,1.46-30,7s19.62,7,30,7,30-1.46,30-7S41.38,40.05,31,40.05Zm0,12c-18.12,0-28-3.3-28-5s9.88-5,28-5,28,3.3,28,5S49.12,52.05,31,52.05Z" style="fill:#8d6c9f;"/><path d="M11,12.07a1,1,0,0,0,1-1v-2a1,1,0,0,0-2,0v2A1,1,0,0,0,11,12.07Z" style="fill:#8d6c9f;"/><path d="M6,12.07a1,1,0,0,0,1-1v-2a1,1,0,0,0-2,0v2A1,1,0,0,0,6,12.07Z" style="fill:#8d6c9f;"/><path d="M26,12.07a1,1,0,0,0,1-1v-2a1,1,0,0,0-2,0v2A1,1,0,0,0,26,12.07Z" style="fill:#8d6c9f;"/><path d="M31,12.07a1,1,0,0,0,1-1v-2a1,1,0,0,0-2,0v2A1,1,0,0,0,31,12.07Z" style="fill:#8d6c9f;"/><path d="M36,12.07a1,1,0,0,0,1-1v-2a1,1,0,0,0-2,0v2A1,1,0,0,0,36,12.07Z" style="fill:#8d6c9f;"/><path d="M41,12.07a1,1,0,0,0,1-1v-2a1,1,0,0,0-2,0v2A1,1,0,0,0,41,12.07Z" style="fill:#8d6c9f;"/><path d="M46,12.07a1,1,0,0,0,1-1v-2a1,1,0,0,0-2,0v2A1,1,0,0,0,46,12.07Z" style="fill:#8d6c9f;"/><path d="M51,12.07a1,1,0,0,0,1-1v-2a1,1,0,0,0-2,0v2A1,1,0,0,0,51,12.07Z" style="fill:#8d6c9f;"/><path d="M56,12.07a1,1,0,0,0,1-1v-2a1,1,0,0,0-2,0v2A1,1,0,0,0,56,12.07Z" style="fill:#8d6c9f;"/><path d="M61,12.07a1,1,0,0,0,1-1v-2a1,1,0,0,0-2,0v2A1,1,0,0,0,61,12.07Z" style="fill:#8d6c9f;"/><path d="M16,12.07a1,1,0,0,0,1-1v-2a1,1,0,0,0-2,0v2A1,1,0,0,0,16,12.07Z" style="fill:#8d6c9f;"/><path d="M21,12.07a1,1,0,0,0,1-1v-2a1,1,0,0,0-2,0v2A1,1,0,0,0,21,12.07Z" style="fill:#8d6c9f;"/><path d="M54,16.05H40.89a3,3,0,0,0-2.23,1l-7.33,8.14-2.9-7.25a3,3,0,0,0-2.79-1.88H8A3,3,0,0,0,5.3,17.86l-1.21,2.8a1,1,0,0,0,.08.95A.84.84,0,0,0,5,22h9c1.93.05,3,.76,3,2.08a3.91,3.91,0,0,1-4,4H10.28L11,25.3a1,1,0,0,0-1-1.24H4a1,1,0,0,0-.94.65l-2,5.3a3,3,0,0,0,.34,2.76A2.82,2.82,0,0,0,3.89,34H11c.57.08,7.35.33,11.43-3.53a9.12,9.12,0,0,0,2.36-3.63l2.15,5.58a3,3,0,0,0,2.23,1.87,3,3,0,0,0,.57.06,3,3,0,0,0,2.19-1L42.44,22H53c1.93.05,3,.76,3,2.08a3.91,3.91,0,0,1-4,4H49.28L50,25.3a1,1,0,0,0-1-1.24H43a1,1,0,0,0-.94.65l-2,5.3a3,3,0,0,0,2.81,4.05h7c.29,0,7.29.5,11.32-3.25A8.81,8.81,0,0,0,64,24.05C64,19,60.36,16.05,54,16.05Zm5.89,13.27c-3.39,3.16-9.76,2.73-9.89,2.73H42.89A1,1,0,0,1,42,30.7l1.74-4.65h4L47,28.81a1,1,0,0,0,1,1.24h4.07c4.82-.34,6-4.09,5.93-6s-1.31-4-5-4H42a1,1,0,0,0-.73.32L30.45,32a1,1,0,0,1-1.67-.32l-3.47-9a1,1,0,0,0-.93-.64l-.18,0a1,1,0,0,0-.82,1A7.86,7.86,0,0,1,21,29c-3.53,3.34-9.91,3-10,3H3.89A1,1,0,0,1,3,30.7l1.74-4.65h4L8,28.81a1,1,0,0,0,1,1.24h4.07c4.82-.34,6-4.09,5.93-6s-1.31-4-5-4H6.52l.61-1.4A1.16,1.16,0,0,1,8,18h17.6a1.14,1.14,0,0,1,.93.68l3.5,8.74a1,1,0,0,0,1.67.3l8.41-9.34a1.32,1.32,0,0,1,.74-.38H54c3.65.05,8,1.1,8,6.05A6.89,6.89,0,0,1,59.89,29.33Z" style="fill:#8d6c9f;"/><path d="M35,46.05H26a1,1,0,0,0,0,2h9a1,1,0,0,0,0-2Z" style="fill:#fff8f8;"/></svg>
